<?xml version="1.0" encoding="UTF-8"?>
<svg id="Layer_1" xmlns="http://www.w3.org/2000/svg" version="1.1" viewBox="0 0 323.76 323.76">
  <!-- Generator: Adobe Illustrator 30.0.0, SVG Export Plug-In . SVG Version: 2.1.1 Build 123)  -->
  <defs>
    <style>
      .st0 {
        fill: #fcb116;
      }

      .st1 {
        fill: #cadd66;
      }

      .st2 {
        fill: #1f3f21;
      }

      .st3 {
        fill: #ffd58e;
      }

      .st4 {
        fill: #f5efdf;
      }

      .st5 {
        fill: #ef4123;
      }
    </style>
  </defs>
  <rect class="st5" x="45.98" y="45.98" width="231.81" height="231.81" rx="40" ry="40"/>
  <g>
    <circle class="st4" cx="120.97" cy="161.25" r="27.28"/>
    <circle class="st4" cx="201.81" cy="161.25" r="27.28"/>
    <g>
      <path class="st4" d="M241.14,192.23c-5.18-2.99-17.15-3.29-17.83-3.26-22.28.86-33.34,1.44-37.65,3.67-10.96,5.67-18.52,25.97-23.08,34.59-4.56-8.62-14.31-28.87-24.5-34.59-4.23-2.38-15.37-2.81-37.65-3.67-.67-.03-12.65.27-17.83,3.26-4.97,2.87-1.54,6.57-1,7.34,2.18,3.11,5.22,7.13,9.14,11.46,5.19,5.74,16.48,17.97,34.87,26.14,10.35,4.59,21.78,8.76,36.26,8.76,16.35,0,25.88-4.15,36.26-8.76,18.39-8.17,29.68-20.4,34.87-26.14,3.92-4.34,6.96-8.35,9.14-11.46.54-.77,3.96-4.47-1-7.34Z"/>
      <path class="st2" d="M172.51,218.88c-.02,2.51-4.99,8.16-9.51,8.35-3.98.17-9.52-5.02-9.48-8.69.03-3.01,4.34-4.17,9.38-4.17s9.64.78,9.6,4.52Z"/>
      <path class="st2" d="M208.07,215.26c-.27-.45-.53-.98-.78-1.48-.76-1.53-1.61-3.27-3.29-4.26-1.65-.98-3.64-.95-5.4-.93-.62,0-1.28.02-1.86-.03-.83-.06-1.63.35-2.05,1.07h0c-.83,1.4.1,3.18,1.72,3.31.76.06,1.52.05,2.24.04.25,0,.5,0,.75,0-.26.4-.53.8-.81,1.19-2.88,4.1-6.47,7.98-10.4,11.23-3.46,2.86-7.76,6.41-14.61,8.79-2.93,1.02-7.82,2.72-14.06,2.09-4.98-.51-8.75-2.29-10.56-3.15-2.33-1.1-4.53-2.44-6.58-4.01-.93-.71-2.25-.58-3.01.31h0c-.82.96-.67,2.41.34,3.17,2.3,1.75,4.77,3.26,7.38,4.49,2.03.96,6.26,2.96,11.99,3.54,1.11.11,2.18.16,3.21.16,5.63,0,9.97-1.51,12.74-2.47,7.6-2.64,12.44-6.64,15.97-9.55,4.29-3.54,8.06-7.61,11.2-12.09.32-.46.63-.92.94-1.39.07.14.14.29.21.43.3.6.61,1.24.99,1.85.86,1.4,2.91,1.38,3.75-.04h0c.42-.7.4-1.58-.02-2.27Z"/>
    </g>
    <circle class="st4" cx="138.61" cy="196.12" r="12.93"/>
    <g>
      <g>
        <path class="st0" d="M187.5,120.44c3.02-1.35,13.7-4.75,27.14-.98,14.59,4.1,22.61,15.19,24.23,17.79,4.69-18.54-3.37-56.42-10.23-59.24-6.36-2.62-34.9,24.17-41.15,42.43Z"/>
        <path class="st3" d="M226.52,124.97c-3.31-2.21-7.26-4.2-11.88-5.5-4.33-1.22-8.38-1.69-11.97-1.72,4.43-10.36,16.89-24.51,19.86-23.65,3.4.98,6.14,20.3,3.99,30.88Z"/>
        <path class="st1" d="M202.34,136.83c6.03,0,11.7,2.35,15.97,6.61,4.27,4.27,6.61,9.94,6.61,15.97s-2.35,11.7-6.61,15.97c-4.27,4.27-9.94,6.61-15.97,6.61s-11.7-2.35-15.97-6.61c-4.27-4.27-6.61-9.94-6.61-15.97s2.35-11.7,6.61-15.97c4.27-4.27,9.94-6.61,15.97-6.61M202.34,122.57c-20.35,0-36.85,16.5-36.85,36.85s16.5,36.85,36.85,36.85,36.85-16.5,36.85-36.85-16.5-36.85-36.85-36.85h0Z"/>
        <path class="st2" d="M211.75,152.72c0,.11.02.22.02.32,0,2.13-1.85,3.84-4.03,3.59-1.69-.19-3.05-1.58-3.19-3.28s.91-3.2,2.41-3.73c-1.13-.77-2.7-1-4.16-1-7.04,0-12.76,6.18-12.76,13.47,0,1.5.24,2.93.69,4.27.26.77,1.27.92,1.73.25,2.32-3.31,6-6.58,10.25-6.58s8.09,3.27,10.41,6.58c.46.66,1.48.52,1.73-.25.44-1.34.69-2.78.69-4.27,0-3.67-1.45-6.98-3.78-9.38Z"/>
      </g>
      <g>
        <path class="st0" d="M136.27,120.44c-3.02-1.35-13.7-4.75-27.14-.98-14.59,4.1-22.61,15.19-24.23,17.79-4.69-18.54,3.37-56.42,10.23-59.24,6.36-2.62,34.9,24.17,41.15,42.43Z"/>
        <path class="st3" d="M97.25,124.97c3.31-2.21,7.26-4.2,11.88-5.5,4.33-1.22,8.38-1.69,11.97-1.72-4.43-10.36-16.89-24.51-19.86-23.65-3.4.98-6.14,20.3-3.99,30.88Z"/>
        <path class="st0" d="M121.43,136.83c6.03,0,11.7,2.35,15.97,6.61,4.27,4.27,6.61,9.94,6.61,15.97,0,6.03-2.35,11.7-6.61,15.97-4.27,4.27-9.94,6.61-15.97,6.61-6.03,0-11.7-2.35-15.97-6.61-4.27-4.27-6.61-9.94-6.61-15.97,0-6.03,2.35-11.7,6.61-15.97,4.27-4.27,9.94-6.61,15.97-6.61M121.43,122.57c-20.35,0-36.85,16.5-36.85,36.85,0,20.35,16.5,36.85,36.85,36.85,20.35,0,36.85-16.5,36.85-36.85,0-20.35-16.5-36.85-36.85-36.85h0Z"/>
        <path class="st2" d="M112.01,152.72c0,.11-.02.22-.02.32,0,2.13,1.85,3.84,4.03,3.59,1.69-.19,3.05-1.58,3.19-3.28s-.91-3.2-2.41-3.73c1.13-.77,2.7-1,4.16-1,7.04,0,12.76,6.18,12.76,13.47,0,1.5-.24,2.93-.69,4.27-.26.77-1.27.92-1.73.25-2.32-3.31-6-6.58-10.25-6.58-4.25,0-8.09,3.27-10.41,6.58-.46.66-1.48.52-1.73-.25-.44-1.34-.69-2.78-.69-4.27,0-3.67,1.45-6.98,3.78-9.38Z"/>
      </g>
    </g>
    <path class="st0" d="M159.11,157.48v-26.47c0-3.73-3.03-6.76-6.76-6.76-1.87,0-3.56.76-4.78,1.98-1.22,1.22-1.98,2.91-1.98,4.78v.35l-.97,57.95v5.37c0,4.23-.99,7.6-3.02,10.31-2.06,2.74-4.85,4.84-8.31,6.22-3.6,1.44-7.63,2.17-11.98,2.17-4.97,0-9.72-.97-14.12-2.9-2.34-1.02-5.67-4.16-8.19-6.78-2.14-2.22-5.59-2.52-8.07-.69-1.65,1.21-2.5,3.07-2.5,4.94,0,1.52.56,3.04,1.7,4.24,3.15,3.31,12.68,14.61,31.25,14.41,8.46-.09,25.46-3.85,32.46-15.02,3.11-4.96,5.27-10.49,5.27-17.22v-31.94c.06-.82.08-1.65.08-2.48s-.03-1.66-.08-2.48Z"/>
    <path class="st4" d="M153.99,211.36c-.05.08-.1.16-.15.24-7,11.17-23.99,14.93-32.46,15.02-8.5.09-15.11-2.22-20.08-5.08-4.77-4.17-8.25-7.97-10.55-10.51-.81-.89-1.57-1.77-2.3-2.62-.01-.14-.02-.29-.02-.43,0-1.87.85-3.73,2.5-4.94,2.48-1.83,5.93-1.53,8.07.69,2.52,2.62,5.84,5.75,8.19,6.78,4.4,1.92,9.15,2.9,14.12,2.9,4.35,0,8.38-.73,11.98-2.17,3.46-1.38,6.26-3.48,8.31-6.22,1.48-1.98,2.41-4.32,2.8-7.08,3.44,3.75,6.7,8.6,9.58,13.44Z"/>
    <path class="st2" d="M153.99,211.36c-.05.08-.1.16-.15.24-7,11.17-23.99,14.93-32.46,15.02-8.5.09-15.11-2.22-20.08-5.08-5.88-3.39-9.47-7.53-11.17-9.33-1.03-1.09-1.59-2.44-1.68-3.81-.01-.14-.02-.29-.02-.43,0-1.87.85-3.73,2.5-4.94,2.48-1.83,5.93-1.53,8.07.69,2.52,2.62,5.84,5.75,8.19,6.78,4.4,1.92,9.15,2.9,14.12,2.9,4.35,0,8.38-.73,11.98-2.17,3.46-1.38,6.26-3.48,8.31-6.22,1.48-1.98,2.41-4.32,2.8-7.08,3.44,3.75,6.7,8.6,9.58,13.44Z"/>
  </g>
</svg>