<?xml version="1.0" encoding="UTF-8"?>
<svg id="Layer_1" xmlns="http://www.w3.org/2000/svg" version="1.1" viewBox="0 0 780.87 231.81">
  <!-- Generator: Adobe Illustrator 30.0.0, SVG Export Plug-In . SVG Version: 2.1.1 Build 123)  -->
  <defs>
    <style>
      .st0 {
        fill: #fcb116;
      }

      .st1 {
        fill: #cadd66;
      }

      .st2 {
        fill: #1f3f21;
      }

      .st3 {
        fill: #ffd58e;
      }

      .st4 {
        fill: #f5efdf;
      }

      .st5 {
        fill: #ef4123;
      }
    </style>
  </defs>
  <g>
    <path class="st2" d="M418.47,196.22l-1.77-11.52c-5.32,4.58-11.19,8.13-17.62,10.64-6.43,2.51-12.82,3.77-19.17,3.77-10.49,0-18.87-2.99-25.15-8.97-6.28-5.98-9.42-13.99-9.42-24.04,0-10.78,3.84-19.39,11.52-25.81,7.68-6.43,18.02-9.64,31.02-9.64,8.57,0,17.87,1.26,27.92,3.77v-14.62c0-7.98-4.3-17.31-7.92-20.56-3.62-3.25-9.79-4.87-18.5-4.87-12.56,0-25.56,2.29-39,6.87l-.09-17.38c5.32-2.8,11.4-4.5,19.08-6.05,7.68-1.55,16.19-2.38,24.02-2.38,14.03,0,24.13,4.36,30.77,10.19,6.65,5.84,12.46,18.46,12.46,30.42v59.54c0,7.04,1.87,13.96,5.41,20.05l.55.94-24.13-.32ZM385.23,182.48c10.04,0,20.24-3.77,30.58-11.3v-22.6c-7.68-1.92-15.51-2.88-23.49-2.88-16.69,0-25.04,6.43-25.04,19.28,0,5.62,1.55,9.94,4.65,12.96,3.1,3.03,7.53,4.54,13.3,4.54Z"/>
    <path class="st2" d="M451.93,196.22l.86-3.81c1.4-6.21,2.11-12.55,2.11-18.92V32.25h21.94v62.26c11.08-9.31,23.04-13.96,35.9-13.96,14.33,0,25.63,5.17,33.9,15.51,8.27,10.34,12.41,24.52,12.41,42.54s-4.36,32.72-13.07,43.65c-8.72,10.93-20.31,16.4-34.79,16.4-13.59,0-25.48-4.73-35.67-14.18l-2.44,11.74h-21.14ZM506.53,98.28c-10.49,0-20.38,3.4-29.69,10.19v61.82c9.31,7.09,19.06,10.64,29.25,10.64,20.38,0,30.58-13.74,30.58-41.21,0-14.03-2.47-24.45-7.42-31.24-4.95-6.79-12.52-10.19-22.71-10.19Z"/>
    <path class="st2" d="M580.36,63.94c-4.29,0-7.64-1.22-10.08-3.66s-3.66-5.65-3.66-9.64,1.22-7.2,3.66-9.64c2.44-2.44,5.8-3.66,10.08-3.66s7.64,1.22,10.08,3.66c2.44,2.44,3.66,5.65,3.66,9.64s-1.22,7.2-3.66,9.64-5.8,3.66-10.08,3.66ZM569.28,196.22v-112.34h21.94v112.34h-21.94Z"/>
    <path class="st2" d="M676.73,196.8l-1.77-11.52c-5.32,4.58-11.19,8.13-17.62,10.64-6.43,2.51-12.82,3.77-19.17,3.77-10.49,0-18.87-2.99-25.15-8.97-6.28-5.98-9.42-13.99-9.42-24.04,0-10.78,3.84-19.39,11.52-25.81,7.68-6.43,18.02-9.64,31.02-9.64,8.57,0,17.87,1.26,27.92,3.77v-14.62c0-7.98-4.3-17.31-7.92-20.56-3.62-3.25-9.79-4.87-18.5-4.87-12.56,0-25.56,2.29-39,6.87l-.09-17.38c5.32-2.8,11.4-4.5,19.08-6.05,7.68-1.55,16.19-2.38,24.02-2.38,14.03,0,24.13,4.36,30.77,10.19,6.65,5.84,12.46,18.46,12.46,30.42v59.54c0,7.04,1.87,13.96,5.41,20.05l.55.94-24.13-.32ZM643.49,183.07c10.04,0,20.24-3.77,30.58-11.3v-22.6c-7.68-1.92-15.51-2.88-23.49-2.88-16.69,0-25.04,6.43-25.04,19.28,0,5.62,1.55,9.94,4.65,12.96,3.1,3.03,7.53,4.54,13.3,4.54Z"/>
    <path class="st2" d="M777.47,189.62c-2.84-2.92-4.26-6.65-4.26-11.23v-.42c-5.35,1.22-10.77,1.82-16.25,1.82-5.91,0-10.08-1.1-12.52-3.33-2.43-2.21-3.66-6.05-3.66-11.51v-64.04h33.24v-17.28h-33.24V31.99h-21.25v52.08s-21.07.24-21.07.24v5.12c0,6.35,5.14,11.48,11.48,11.48h8.92v65.14c0,20.98,10.48,31.47,31.46,31.47,9.01,0,23.21-2.56,30.56-5.31-1.24-.68-2.38-1.54-3.4-2.58Z"/>
    <path class="st2" d="M342.94,191.73c-.28-.24-.55-.49-.82-.74-3.53-3.35-6.06-7.36-7.6-11.99-5.05,1.09-10.17,1.62-15.34,1.62-5.91,0-10.09-1.11-12.52-3.33-2.44-2.21-3.66-6.05-3.66-11.53v-64.03h33.24v-17.28h-33.24v-51.65h-21.25l-.03,52.09-21.04.24v16.59h20.38v65.14c0,20.98,10.49,31.47,31.47,31.47,9.16,0,23.68-2.66,30.92-5.46l-.51-1.16Z"/>
  </g>
  <rect class="st5" width="231.81" height="231.81" rx="40" ry="40"/>
  <g>
    <circle class="st4" cx="75" cy="115.27" r="27.28"/>
    <circle class="st4" cx="155.83" cy="115.27" r="27.28"/>
    <g>
      <path class="st4" d="M195.17,146.25c-5.18-2.99-17.15-3.29-17.83-3.26-22.28.86-33.34,1.44-37.65,3.67-10.96,5.67-18.52,25.97-23.08,34.59-4.56-8.62-14.31-28.87-24.5-34.59-4.23-2.38-15.37-2.81-37.65-3.67-.67-.03-12.65.27-17.83,3.26-4.97,2.87-1.54,6.57-1,7.34,2.18,3.11,5.22,7.13,9.14,11.46,5.19,5.74,16.48,17.97,34.87,26.14,10.35,4.59,21.78,8.76,36.26,8.76,16.35,0,25.88-4.15,36.26-8.76,18.39-8.17,29.68-20.4,34.87-26.14,3.92-4.34,6.96-8.35,9.14-11.46.54-.77,3.96-4.47-1-7.34Z"/>
      <path class="st2" d="M126.53,172.9c-.02,2.51-4.99,8.16-9.51,8.35-3.98.17-9.52-5.02-9.48-8.69.03-3.01,4.34-4.17,9.38-4.17s9.64.78,9.6,4.52Z"/>
      <path class="st2" d="M162.1,169.29c-.27-.45-.53-.98-.78-1.48-.76-1.53-1.61-3.27-3.29-4.26-1.65-.98-3.64-.95-5.4-.93-.62,0-1.28.02-1.86-.03-.83-.06-1.63.35-2.05,1.07h0c-.83,1.4.1,3.18,1.72,3.31.76.06,1.52.05,2.24.04.25,0,.5,0,.75,0-.26.4-.53.8-.81,1.19-2.88,4.1-6.47,7.98-10.4,11.23-3.46,2.86-7.76,6.41-14.61,8.79-2.93,1.02-7.82,2.72-14.06,2.09-4.98-.51-8.75-2.29-10.56-3.15-2.33-1.1-4.53-2.44-6.58-4.01-.93-.71-2.25-.58-3.01.31h0c-.82.96-.67,2.41.34,3.17,2.3,1.75,4.77,3.26,7.38,4.49,2.03.96,6.26,2.96,11.99,3.54,1.11.11,2.18.16,3.21.16,5.63,0,9.97-1.51,12.74-2.47,7.6-2.64,12.44-6.64,15.97-9.55,4.29-3.54,8.06-7.61,11.2-12.09.32-.46.63-.92.94-1.39.07.14.14.29.21.43.3.6.61,1.24.99,1.85.86,1.4,2.91,1.38,3.75-.04h0c.42-.7.4-1.58-.02-2.27Z"/>
    </g>
    <circle class="st4" cx="92.64" cy="150.14" r="12.93"/>
    <g>
      <g>
        <path class="st0" d="M141.52,74.47c3.02-1.35,13.7-4.75,27.14-.98,14.59,4.1,22.61,15.19,24.23,17.79,4.69-18.54-3.37-56.42-10.23-59.24-6.36-2.62-34.9,24.17-41.15,42.43Z"/>
        <path class="st3" d="M180.54,78.99c-3.31-2.21-7.26-4.2-11.88-5.5-4.33-1.22-8.38-1.69-11.97-1.72,4.43-10.36,16.89-24.51,19.86-23.65,3.4.98,6.14,20.3,3.99,30.88Z"/>
        <path class="st1" d="M156.36,90.85c6.03,0,11.7,2.35,15.97,6.61,4.27,4.27,6.61,9.94,6.61,15.97s-2.35,11.7-6.61,15.97c-4.27,4.27-9.94,6.61-15.97,6.61s-11.7-2.35-15.97-6.61c-4.27-4.27-6.61-9.94-6.61-15.97s2.35-11.7,6.61-15.97c4.27-4.27,9.94-6.61,15.97-6.61M156.36,76.59c-20.35,0-36.85,16.5-36.85,36.85s16.5,36.85,36.85,36.85,36.85-16.5,36.85-36.85-16.5-36.85-36.85-36.85h0Z"/>
        <path class="st2" d="M165.78,106.75c0,.11.02.22.02.32,0,2.13-1.85,3.84-4.03,3.59-1.69-.19-3.05-1.58-3.19-3.28s.91-3.2,2.41-3.73c-1.13-.77-2.7-1-4.16-1-7.04,0-12.76,6.18-12.76,13.47,0,1.5.24,2.93.69,4.27.26.77,1.27.92,1.73.25,2.32-3.31,6-6.58,10.25-6.58s8.09,3.27,10.41,6.58c.46.66,1.48.52,1.73-.25.44-1.34.69-2.78.69-4.27,0-3.67-1.45-6.98-3.78-9.38Z"/>
      </g>
      <g>
        <path class="st0" d="M90.29,74.47c-3.02-1.35-13.7-4.75-27.14-.98-14.59,4.1-22.61,15.19-24.23,17.79-4.69-18.54,3.37-56.42,10.23-59.24,6.36-2.62,34.9,24.17,41.15,42.43Z"/>
        <path class="st3" d="M51.27,78.99c3.31-2.21,7.26-4.2,11.88-5.5,4.33-1.22,8.38-1.69,11.97-1.72-4.43-10.36-16.89-24.51-19.86-23.65-3.4.98-6.14,20.3-3.99,30.88Z"/>
        <path class="st0" d="M75.45,90.85c6.03,0,11.7,2.35,15.97,6.61,4.27,4.27,6.61,9.94,6.61,15.97,0,6.03-2.35,11.7-6.61,15.97-4.27,4.27-9.94,6.61-15.97,6.61-6.03,0-11.7-2.35-15.97-6.61-4.27-4.27-6.61-9.94-6.61-15.97,0-6.03,2.35-11.7,6.61-15.97,4.27-4.27,9.94-6.61,15.97-6.61M75.45,76.59c-20.35,0-36.85,16.5-36.85,36.85,0,20.35,16.5,36.85,36.85,36.85,20.35,0,36.85-16.5,36.85-36.85,0-20.35-16.5-36.85-36.85-36.85h0Z"/>
        <path class="st2" d="M66.03,106.75c0,.11-.02.22-.02.32,0,2.13,1.85,3.84,4.03,3.59,1.69-.19,3.05-1.58,3.19-3.28s-.91-3.2-2.41-3.73c1.13-.77,2.7-1,4.16-1,7.04,0,12.76,6.18,12.76,13.47,0,1.5-.24,2.93-.69,4.27-.26.77-1.27.92-1.73.25-2.32-3.31-6-6.58-10.25-6.58-4.25,0-8.09,3.27-10.41,6.58-.46.66-1.48.52-1.73-.25-.44-1.34-.69-2.78-.69-4.27,0-3.67,1.45-6.98,3.78-9.38Z"/>
      </g>
    </g>
    <path class="st0" d="M113.13,111.5v-26.47c0-3.73-3.03-6.76-6.76-6.76-1.87,0-3.56.76-4.78,1.98-1.22,1.22-1.98,2.91-1.98,4.78v.35l-.97,57.95v5.37c0,4.23-.99,7.6-3.02,10.31-2.06,2.74-4.85,4.84-8.31,6.22-3.6,1.44-7.63,2.17-11.98,2.17-4.97,0-9.72-.97-14.12-2.9-2.34-1.02-5.67-4.16-8.19-6.78-2.14-2.22-5.59-2.52-8.07-.69-1.65,1.21-2.5,3.07-2.5,4.94,0,1.52.56,3.04,1.7,4.24,3.15,3.31,12.68,14.61,31.25,14.41,8.46-.09,25.46-3.85,32.46-15.02,3.11-4.96,5.27-10.49,5.27-17.22v-31.94c.06-.82.08-1.65.08-2.48s-.03-1.66-.08-2.48Z"/>
    <path class="st4" d="M108.01,165.38c-.05.08-.1.16-.15.24-7,11.17-23.99,14.93-32.46,15.02-8.5.09-15.11-2.22-20.08-5.08-4.77-4.17-8.25-7.97-10.55-10.51-.81-.89-1.57-1.77-2.3-2.62-.01-.14-.02-.29-.02-.43,0-1.87.85-3.73,2.5-4.94,2.48-1.83,5.93-1.53,8.07.69,2.52,2.62,5.84,5.75,8.19,6.78,4.4,1.92,9.15,2.9,14.12,2.9,4.35,0,8.38-.73,11.98-2.17,3.46-1.38,6.26-3.48,8.31-6.22,1.48-1.98,2.41-4.32,2.8-7.08,3.44,3.75,6.7,8.6,9.58,13.44Z"/>
    <path class="st2" d="M108.01,165.38c-.05.08-.1.16-.15.24-7,11.17-23.99,14.93-32.46,15.02-8.5.09-15.11-2.22-20.08-5.08-5.88-3.39-9.47-7.53-11.17-9.33-1.03-1.09-1.59-2.44-1.68-3.81-.01-.14-.02-.29-.02-.43,0-1.87.85-3.73,2.5-4.94,2.48-1.83,5.93-1.53,8.07.69,2.52,2.62,5.84,5.75,8.19,6.78,4.4,1.92,9.15,2.9,14.12,2.9,4.35,0,8.38-.73,11.98-2.17,3.46-1.38,6.26-3.48,8.31-6.22,1.48-1.98,2.41-4.32,2.8-7.08,3.44,3.75,6.7,8.6,9.58,13.44Z"/>
  </g>
</svg>